<svg id="Capa_1" enable-background="new 0 0 609.809 609.809" height="512" viewBox="0 0 609.809 609.809" width="512" xmlns="http://www.w3.org/2000/svg"><g><g><g><g><path d="m570.267 512.144h-530.725c-21.796 0-39.542-17.746-39.542-39.661v-335.157c0-21.796 17.746-39.542 39.542-39.542h530.605c21.915 0 39.661 17.746 39.661 39.542v335.157c.001 21.915-17.745 39.661-39.541 39.661z" fill="#505278"/><path d="m570.267 97.784h-265.363v414.36h265.362c21.915 0 39.542-17.746 39.542-39.542v-335.276c.001-21.796-17.745-39.542-39.541-39.542z" fill="#424566"/></g><g><g><g><path d="m318.125 97.784c-4.05 122.319-104.811 220.46-228.083 220.46-31.92 0-62.41-6.551-90.042-18.58v-53.239c26.56 15.364 57.289 24.059 90.042 24.059 96.95 0 176.273-76.822 180.322-172.819h47.76v.119z" fill="#575982"/></g><path d="m304.904 97.784v69.199c7.742-21.796 12.387-45.021 13.22-69.199z" fill="#505278"/></g><g><path d="m609.809 340.04v48.356c-28.585-5.479-56.455-7.861-84.087-5.121-49.904 5.002-96.236 28.347-145.902 73.487-7.98 7.265-16.079 14.769-23.821 22.034-11.91 11.077-23.821 22.272-36.327 33.23h-77.179c28.585-19.057 54.192-42.996 80.99-68.008 7.98-7.384 16.079-15.126 24.297-22.511 57.646-52.286 112.672-79.561 173.176-85.635 29.897-2.978 60.149-.596 88.853 4.168z" fill="#505278"/><path d="m242.494 512.144h62.41v-50.857c-20.366 18.699-40.495 36.208-62.41 50.857z" fill="#575982"/></g></g></g><g><g><path d="m127.679 299.426h-58.48c-8.933 0-16.198-7.265-16.198-16.198v-38.828c0-8.933 7.265-16.198 16.198-16.198h58.48c8.933 0 16.198 7.265 16.198 16.198v38.828c-.119 9.052-7.266 16.198-16.198 16.198z" fill="#424566"/><g><path d="m127.679 298.473h-58.599c-8.337 0-15.126-6.789-15.126-15.126v-38.947c0-8.337 6.789-15.126 15.126-15.126h58.599c8.337 0 15.126 6.789 15.126 15.126v38.947c0 8.337-6.789 15.126-15.126 15.126z" fill="#febd55"/><path d="m142.805 265.124v-2.382h-30.967v-10.481l7.98-7.98h22.987c0-.834-.119-1.667-.238-2.382h-23.344c-.357 0-.596.119-.834.357l-8.337 8.337h-10.482v-21.2h-2.382v21.2h-10.362l-8.337-8.337c-.238-.238-.596-.357-.834-.357h-23.463c-.119.715-.238 1.548-.238 2.382h23.225l7.861 7.861v10.6h-31.086v2.382h31.086v10.6l-7.861 7.861h-23.225c0 .834.119 1.667.238 2.382h23.463c.357 0 .596-.119.834-.357l8.337-8.337h10.362v21.2h2.382v-21.2h10.481l8.337 8.337c.238.238.476.357.834.357h23.344c.119-.715.238-1.548.238-2.382h-22.987l-7.98-7.98v-10.481zm-33.349 9.766h-22.034v-22.034h22.034z" fill="#b5613c"/></g></g><path d="m545.97 297.758c-.596 0-1.072-.119-1.548-.357-1.787-.834-2.501-2.978-1.548-4.764 9.171-18.223 9.171-39.066 0-57.289-.834-1.787-.119-3.93 1.548-4.764 1.787-.834 3.93-.119 4.764 1.548 10.243 20.248 10.243 43.473 0 63.72-.715 1.192-1.906 1.906-3.216 1.906zm-12.268-6.789c9.647-17.151 9.647-36.922 0-54.073-.953-1.667-3.097-2.382-4.883-1.31-1.667.953-2.382 3.097-1.31 4.883 8.456 15.007 8.456 32.158 0 47.046-.953 1.667-.357 3.93 1.31 4.883.596.357 1.191.476 1.787.476 1.19-.118 2.381-.833 3.096-1.905zm-15.245-4.883c9.409-13.697 9.409-30.729 0-44.545-1.072-1.667-3.335-2.025-5.002-.953s-2.025 3.335-.953 5.002c7.623 11.196 7.623 25.25 0 36.446-1.072 1.667-.715 3.811.953 5.002.596.476 1.31.595 2.025.595 1.19.121 2.262-.475 2.977-1.547zm-16.079-4.526c5.241-4.764 8.099-11.077 8.099-17.627s-2.858-12.863-8.099-17.627c-1.429-1.31-3.692-1.31-5.002.238-1.31 1.429-1.31 3.692.238 5.002 3.692 3.454 5.717 7.861 5.717 12.387s-2.025 8.933-5.717 12.387c-1.429 1.31-1.548 3.573-.238 5.002.715.715 1.667 1.191 2.62 1.191.833 0 1.667-.357 2.382-.953z" fill="#cad4ff"/><path d="m300.021 452.116h-242.494c-2.025 0-3.573-1.548-3.573-3.573s1.548-3.573 3.573-3.573h242.494c2.025 0 3.573 1.548 3.573 3.573s-1.667 3.573-3.573 3.573z" fill="#e6eaff"/><path d="m553.235 452.116h-45.974c-2.025 0-3.573-1.548-3.573-3.573s1.548-3.573 3.573-3.573h45.974c2.025 0 3.573 1.548 3.573 3.573s-1.667 3.573-3.573 3.573zm-65.507-3.573c0-2.025-1.548-3.573-3.573-3.573h-45.974c-2.025 0-3.573 1.548-3.573 3.573s1.548 3.573 3.573 3.573h45.974c2.025 0 3.573-1.667 3.573-3.573z" fill="#cad4ff"/><path d="m57.527 179.012c-2.025 0-3.573-1.548-3.573-3.573v-14.054c0-2.025 1.548-3.573 3.573-3.573s3.573 1.548 3.573 3.573v13.935c0 2.025-1.548 3.692-3.573 3.692zm22.987-3.573v-14.054c0-2.025-1.548-3.573-3.573-3.573s-3.573 1.548-3.573 3.573v13.935c0 2.025 1.548 3.573 3.573 3.573 2.024.119 3.573-1.548 3.573-3.454zm19.533 0v-14.054c0-2.025-1.548-3.573-3.573-3.573s-3.573 1.548-3.573 3.573v13.935c0 2.025 1.548 3.573 3.573 3.573 1.905.119 3.573-1.548 3.573-3.454zm19.414 0v-14.054c0-2.025-1.548-3.573-3.573-3.573s-3.573 1.548-3.573 3.573v13.935c0 2.025 1.548 3.573 3.573 3.573 2.024.119 3.573-1.548 3.573-3.454z" fill="#e6eaff"/><g><g><g><path d="m64.911 391.493h-.596c-5.955 0-10.838-4.883-10.838-10.838v-16.913c0-5.955 4.883-10.838 10.838-10.838h.596c5.955 0 10.838 4.883 10.838 10.838v16.913c.001 5.954-4.763 10.838-10.838 10.838zm-.595-31.444c-2.025 0-3.692 1.667-3.692 3.692v16.913c0 2.025 1.667 3.692 3.692 3.692h.596c2.025 0 3.692-1.667 3.692-3.692v-16.913c0-2.025-1.667-3.692-3.692-3.692z" fill="#e6eaff"/></g><g><path d="m93.853 391.493h-.596c-5.955 0-10.838-4.883-10.838-10.838v-16.913c0-5.955 4.883-10.838 10.838-10.838h.596c5.955 0 10.838 4.883 10.838 10.838v16.913c.001 5.954-4.763 10.838-10.838 10.838zm-.595-31.444c-2.025 0-3.692 1.667-3.692 3.692v16.913c0 2.025 1.667 3.692 3.692 3.692h.596c2.025 0 3.692-1.667 3.692-3.692v-16.913c0-2.025-1.667-3.692-3.692-3.692z" fill="#e6eaff"/></g><g><path d="m122.796 391.493h-.596c-5.955 0-10.838-4.883-10.838-10.838v-16.913c0-5.955 4.883-10.838 10.838-10.838h.596c5.955 0 10.838 4.883 10.838 10.838v16.913c0 5.954-4.883 10.838-10.838 10.838zm-.596-31.444c-2.025 0-3.692 1.667-3.692 3.692v16.913c0 2.025 1.667 3.692 3.692 3.692h.596c2.025 0 3.692-1.667 3.692-3.692v-16.913c0-2.025-1.667-3.692-3.692-3.692z" fill="#e6eaff"/></g><g><path d="m151.738 391.493h-.596c-5.955 0-10.838-4.883-10.838-10.838v-16.913c0-5.955 4.883-10.838 10.838-10.838h.596c5.955 0 10.838 4.883 10.838 10.838v16.913c0 5.954-4.883 10.838-10.838 10.838zm-.596-31.444c-2.025 0-3.692 1.667-3.692 3.692v16.913c0 2.025 1.667 3.692 3.692 3.692h.596c2.025 0 3.692-1.667 3.692-3.692v-16.913c0-2.025-1.667-3.692-3.692-3.692z" fill="#e6eaff"/></g></g><g><g><path d="m196.163 391.493h-.596c-5.955 0-10.838-4.883-10.838-10.838v-16.913c0-5.955 4.883-10.838 10.838-10.838h.596c5.955 0 10.838 4.883 10.838 10.838v16.913c.001 5.954-4.883 10.838-10.838 10.838zm-.595-31.444c-2.025 0-3.692 1.667-3.692 3.692v16.913c0 2.025 1.667 3.692 3.692 3.692h.596c2.025 0 3.692-1.667 3.692-3.692v-16.913c0-2.025-1.667-3.692-3.692-3.692z" fill="#e6eaff"/></g><g><path d="m225.105 391.493h-.596c-5.955 0-10.838-4.883-10.838-10.838v-16.913c0-5.955 4.883-10.838 10.838-10.838h.596c5.955 0 10.838 4.883 10.838 10.838v16.913c.001 5.954-4.883 10.838-10.838 10.838zm-.595-31.444c-2.025 0-3.692 1.667-3.692 3.692v16.913c0 2.025 1.667 3.692 3.692 3.692h.596c2.025 0 3.692-1.667 3.692-3.692v-16.913c0-2.025-1.667-3.692-3.692-3.692z" fill="#e6eaff"/></g><g><path d="m254.047 391.493h-.596c-5.955 0-10.838-4.883-10.838-10.838v-16.913c0-5.955 4.883-10.838 10.838-10.838h.596c5.955 0 10.838 4.883 10.838 10.838v16.913c.001 5.954-4.882 10.838-10.838 10.838zm-.595-31.444c-2.025 0-3.692 1.667-3.692 3.692v16.913c0 2.025 1.667 3.692 3.692 3.692h.596c2.025 0 3.692-1.667 3.692-3.692v-16.913c0-2.025-1.667-3.692-3.692-3.692z" fill="#e6eaff"/></g><g><path d="m282.989 391.493h-.596c-5.955 0-10.838-4.883-10.838-10.838v-16.913c0-5.955 4.883-10.838 10.838-10.838h.596c5.955 0 10.838 4.883 10.838 10.838v16.913c.001 5.954-4.882 10.838-10.838 10.838zm-.595-31.444c-2.025 0-3.692 1.667-3.692 3.692v16.913c0 2.025 1.667 3.692 3.692 3.692h.596c2.025 0 3.692-1.667 3.692-3.692v-16.913c0-2.025-1.667-3.692-3.692-3.692z" fill="#e6eaff"/></g></g><g><g><path d="m327.415 391.493h-.596c-5.955 0-10.838-4.883-10.838-10.838v-16.913c0-5.955 4.883-10.838 10.838-10.838h.596c5.955 0 10.838 4.883 10.838 10.838v16.913c0 5.954-4.883 10.838-10.838 10.838zm-.596-31.444c-2.025 0-3.692 1.667-3.692 3.692v16.913c0 2.025 1.667 3.692 3.692 3.692h.596c2.025 0 3.692-1.667 3.692-3.692v-16.913c0-2.025-1.667-3.692-3.692-3.692z" fill="#cad4ff"/></g><g><path d="m356.357 391.493h-.595c-5.955 0-10.838-4.883-10.838-10.838v-16.913c0-5.955 4.883-10.838 10.838-10.838h.595c5.955 0 10.838 4.883 10.838 10.838v16.913c0 5.954-4.883 10.838-10.838 10.838zm-.595-31.444c-2.025 0-3.692 1.667-3.692 3.692v16.913c0 2.025 1.667 3.692 3.692 3.692h.595c2.025 0 3.692-1.667 3.692-3.692v-16.913c0-2.025-1.667-3.692-3.692-3.692z" fill="#cad4ff"/></g><g><path d="m385.299 391.493h-.596c-5.955 0-10.838-4.883-10.838-10.838v-16.913c0-5.955 4.883-10.838 10.838-10.838h.596c5.955 0 10.838 4.883 10.838 10.838v16.913c.001 5.954-4.883 10.838-10.838 10.838zm-.595-31.444c-2.025 0-3.692 1.667-3.692 3.692v16.913c0 2.025 1.667 3.692 3.692 3.692h.596c2.025 0 3.692-1.667 3.692-3.692v-16.913c0-2.025-1.667-3.692-3.692-3.692z" fill="#cad4ff"/></g><g><path d="m414.241 391.493h-.596c-5.955 0-10.838-4.883-10.838-10.838v-16.913c0-5.955 4.883-10.838 10.838-10.838h.596c5.955 0 10.838 4.883 10.838 10.838v16.913c.001 5.954-4.883 10.838-10.838 10.838zm-.595-31.444c-2.025 0-3.692 1.667-3.692 3.692v16.913c0 2.025 1.667 3.692 3.692 3.692h.596c2.025 0 3.692-1.667 3.692-3.692v-16.913c0-2.025-1.667-3.692-3.692-3.692z" fill="#cad4ff"/></g></g><g><g><path d="m458.667 391.493h-.596c-5.955 0-10.838-4.883-10.838-10.838v-16.913c0-5.955 4.883-10.838 10.838-10.838h.596c5.955 0 10.838 4.883 10.838 10.838v16.913c0 5.954-4.883 10.838-10.838 10.838zm-.596-31.444c-2.025 0-3.692 1.667-3.692 3.692v16.913c0 2.025 1.667 3.692 3.692 3.692h.596c2.025 0 3.692-1.667 3.692-3.692v-16.913c0-2.025-1.667-3.692-3.692-3.692z" fill="#cad4ff"/></g><g><path d="m487.609 391.493h-.595c-5.955 0-10.838-4.883-10.838-10.838v-16.913c0-5.955 4.883-10.838 10.838-10.838h.595c5.955 0 10.838 4.883 10.838 10.838v16.913c0 5.954-4.883 10.838-10.838 10.838zm-.596-31.444c-2.025 0-3.692 1.667-3.692 3.692v16.913c0 2.025 1.667 3.692 3.692 3.692h.595c2.025 0 3.692-1.667 3.692-3.692v-16.913c0-2.025-1.667-3.692-3.692-3.692z" fill="#cad4ff"/></g><g><path d="m516.551 391.493h-.596c-5.955 0-10.838-4.883-10.838-10.838v-16.913c0-5.955 4.883-10.838 10.838-10.838h.596c5.955 0 10.838 4.883 10.838 10.838v16.913c0 5.954-4.883 10.838-10.838 10.838zm-.595-31.444c-2.025 0-3.692 1.667-3.692 3.692v16.913c0 2.025 1.667 3.692 3.692 3.692h.596c2.025 0 3.692-1.667 3.692-3.692v-16.913c0-2.025-1.667-3.692-3.692-3.692z" fill="#cad4ff"/></g><g><path d="m545.493 391.493h-.596c-5.955 0-10.838-4.883-10.838-10.838v-16.913c0-5.955 4.883-10.838 10.838-10.838h.596c5.955 0 10.838 4.883 10.838 10.838v16.913c.001 5.954-4.883 10.838-10.838 10.838zm-.595-31.444c-2.025 0-3.692 1.667-3.692 3.692v16.913c0 2.025 1.667 3.692 3.692 3.692h.596c2.025 0 3.692-1.667 3.692-3.692v-16.913c0-2.025-1.667-3.692-3.692-3.692z" fill="#cad4ff"/></g></g></g></g></g></g></svg>