<svg id="Capa_1" enable-background="new 0 0 510 510" height="512" viewBox="0 0 510 510" width="512" xmlns="http://www.w3.org/2000/svg" xmlns:xlink="http://www.w3.org/1999/xlink"><linearGradient id="lg1"><stop offset="0" stop-color="#deecf1"/><stop offset="1" stop-color="#d9b1ee"/></linearGradient><linearGradient id="SVGID_1_" gradientUnits="userSpaceOnUse" x1="47.92" x2="103.92" xlink:href="#lg1" y1="218.679" y2="312.679"/><linearGradient id="SVGID_00000176003846926804989300000011328144365290124420_" gradientUnits="userSpaceOnUse" x1="112.298" x2="168.298" xlink:href="#lg1" y1="202.56" y2="296.56"/><linearGradient id="lg2"><stop offset="0" stop-color="#8379c1" stop-opacity="0"/><stop offset="1" stop-color="#814aa0"/></linearGradient><linearGradient id="SVGID_00000044160184365378522040000016319921262975517349_" gradientUnits="userSpaceOnUse" x1="100.333" x2="122.064" xlink:href="#lg2" y1="240" y2="240"/><linearGradient id="SVGID_00000129188829465166267470000009940266180497056180_" gradientUnits="userSpaceOnUse" x1="29.56" x2="85.56" xlink:href="#lg1" y1="251.851" y2="345.851"/><linearGradient id="SVGID_00000079457082663496128420000016967377507853433007_" gradientUnits="userSpaceOnUse" x1="73.052" x2="129.052" xlink:href="#lg1" y1="225.941" y2="319.941"/><linearGradient id="SVGID_00000065765841615245200830000013928305578244565913_" gradientUnits="userSpaceOnUse" x1="91" x2="118.867" xlink:href="#lg2" y1="300" y2="300"/><linearGradient id="SVGID_00000165203314229568270810000002474714570654409390_" gradientUnits="userSpaceOnUse" x1="24.205" x2="80.205" xlink:href="#lg1" y1="239.173" y2="333.173"/><linearGradient id="SVGID_00000013882860055858595880000006881086428583331007_" gradientUnits="userSpaceOnUse" x1="269.699" x2="359.983" y1="137.805" y2="380.875"><stop offset="0" stop-color="#9be69d"/><stop offset="1" stop-color="#0bb494"/></linearGradient><linearGradient id="lg3"><stop offset="0" stop-color="#01525a" stop-opacity="0"/><stop offset="1" stop-color="#01525a"/></linearGradient><linearGradient id="SVGID_00000036948717020095966150000006780422463401469866_" gradientUnits="userSpaceOnUse" x1="119.42" x2="217.093" xlink:href="#lg3" y1="152.498" y2="250.171"/><linearGradient id="SVGID_00000081633223956833213440000013457938188908020378_" gradientUnits="userSpaceOnUse" x1="436.662" x2="530.59" xlink:href="#lg3" y1="114.829" y2="208.756"/><linearGradient id="SVGID_00000120558700996190455800000018352018985622467991_" gradientUnits="userSpaceOnUse" x1="403.727" x2="523.779" xlink:href="#lg3" y1="254.191" y2="374.243"/><linearGradient id="SVGID_00000048503351269850838860000008909098729016825531_" gradientUnits="userSpaceOnUse" x1="68.361" x2="188.413" xlink:href="#lg3" y1="274.514" y2="394.566"/><linearGradient id="SVGID_00000122001820222335554500000002532433297721616286_" gradientUnits="userSpaceOnUse" x1="247.032" x2="404.07" xlink:href="#lg3" y1="48.523" y2="538.351"/><linearGradient id="SVGID_00000176006595933428893780000004895068588445104827_" gradientUnits="userSpaceOnUse" x1="467.737" x2="523.805" xlink:href="#lg3" y1="243.285" y2="243.285"/><linearGradient id="SVGID_00000018946641717807602770000005482765146804634039_" gradientUnits="userSpaceOnUse" x1="314.243" x2="315.87" xlink:href="#lg3" y1="338.149" y2="392.665"/><linearGradient id="SVGID_00000036223310678604701560000006222425522263359631_" gradientUnits="userSpaceOnUse" x1="189.403" x2="164.403" xlink:href="#lg3" y1="271.467" y2="224.466"/><linearGradient id="SVGID_00000015348021672432697040000012791816546446039958_" gradientUnits="userSpaceOnUse" x1="249.787" x2="353.153" xlink:href="#lg3" y1="95.312" y2="382.442"/><linearGradient id="SVGID_00000154402933550202450060000005843839042267330467_" gradientUnits="userSpaceOnUse" x1="30.713" x2="352.314" xlink:href="#lg3" y1="39.163" y2="291.737"/><linearGradient id="SVGID_00000069391670042547902360000017959125498176863375_" gradientUnits="userSpaceOnUse" x1="181.118" x2="159.118" xlink:href="#lg3" y1="224.867" y2="182.867"/><linearGradient id="SVGID_00000075868160145243014730000005726759663071850423_" gradientUnits="userSpaceOnUse" x1="214.5" x2="184.483" xlink:href="#lg2" y1="210" y2="210"/><linearGradient id="lg4"><stop offset="0" stop-color="#deecf1" stop-opacity="0"/><stop offset="1" stop-color="#d9b1ee"/></linearGradient><linearGradient id="SVGID_00000114768352856256007100000009161537180136027059_" gradientUnits="userSpaceOnUse" x1="128.964" x2="94.949" xlink:href="#lg4" y1="210" y2="210"/><linearGradient id="SVGID_00000128451561616232283550000008885254132188506767_" gradientUnits="userSpaceOnUse" x1="201.5" x2="169.496" xlink:href="#lg2" y1="300" y2="300"/><linearGradient id="SVGID_00000073722630333650900310000014736054849630293897_" gradientUnits="userSpaceOnUse" x1="118.462" x2="90.462" xlink:href="#lg4" y1="270" y2="270"/><linearGradient id="SVGID_00000110465788021145502980000009863769861949970341_" gradientUnits="userSpaceOnUse" x1="153.333" x2="117.665" xlink:href="#lg2" y1="300" y2="300"/><g><path d="m27.749 217.5h30c4.142 0 7.5-3.358 7.5-7.5s-3.358-7.5-7.5-7.5h-30c-4.142 0-7.5 3.358-7.5 7.5s3.358 7.5 7.5 7.5z" fill="url(#SVGID_1_)"/><path d="m186.706 232.5h-104.206c-4.142 0-7.5 3.358-7.5 7.5s3.358 7.5 7.5 7.5h104.206c4.142 0 7.5-3.358 7.5-7.5s-3.358-7.5-7.5-7.5z" fill="url(#SVGID_00000176003846926804989300000011328144365290124420_)"/><path d="m186.706 232.5h-104.206c-4.142 0-7.5 3.358-7.5 7.5s3.358 7.5 7.5 7.5h104.206c4.142 0 7.5-3.358 7.5-7.5s-3.358-7.5-7.5-7.5z" fill="url(#SVGID_00000044160184365378522040000016319921262975517349_)"/><path d="m37.5 232.5h-30c-4.142 0-7.5 3.358-7.5 7.5s3.358 7.5 7.5 7.5h30c4.142 0 7.5-3.358 7.5-7.5s-3.358-7.5-7.5-7.5z" fill="url(#SVGID_00000129188829465166267470000009940266180497056180_)"/><path d="m169.275 292.5h-104.205c-4.142 0-7.5 3.358-7.5 7.5s3.358 7.5 7.5 7.5h104.206c4.142 0 7.5-3.358 7.5-7.5s-3.358-7.5-7.501-7.5z" fill="url(#SVGID_00000079457082663496128420000016967377507853433007_)"/><path d="m169.275 292.5h-104.205c-4.142 0-7.5 3.358-7.5 7.5s3.358 7.5 7.5 7.5h104.206c4.142 0 7.5-3.358 7.5-7.5s-3.358-7.5-7.501-7.5z" fill="url(#SVGID_00000065765841615245200830000013928305578244565913_)"/><path d="m50.404 277.5c4.142 0 7.5-3.358 7.5-7.5s-3.358-7.5-7.5-7.5h-15.668c-4.142 0-7.5 3.358-7.5 7.5s3.358 7.5 7.5 7.5z" fill="url(#SVGID_00000165203314229568270810000002474714570654409390_)"/><g><path d="m500.412 136.326c-122.922-50.868-247.407 57.641-370.362 10.197-6.544-2.525-13.593 2.229-13.593 9.243v46.734h-13.757c-4.142 0-7.5 3.358-7.5 7.5s3.358 7.5 7.5 7.5h13.758v45h-21.054c-4.142 0-7.5 3.358-7.5 7.5s3.358 7.5 7.5 7.5h21.054v81.817c0 6.282 3.783 11.955 9.588 14.357 122.921 50.868 247.406-57.641 370.362-10.197 6.544 2.525 13.593-2.229 13.593-9.243v-203.551c-.001-6.282-3.784-11.955-9.589-14.357z" fill="url(#SVGID_00000013882860055858595880000006881086428583331007_)"/><g><circle cx="145.546" cy="178.624" fill="url(#SVGID_00000036948717020095966150000006780422463401469866_)" r="16.304"/><circle cx="480.912" cy="159.078" fill="url(#SVGID_00000081633223956833213440000013457938188908020378_)" r="16.304"/><circle cx="480.912" cy="331.376" fill="url(#SVGID_00000120558700996190455800000018352018985622467991_)" r="16.304"/><circle cx="145.546" cy="351.699" fill="url(#SVGID_00000048503351269850838860000008909098729016825531_)" r="16.304"/></g><path d="m489.635 186.275c-1.96-1.97-4.57-3.04-7.39-3.04-.01 0-.01 0-.03 0-12.97 0-23.53-10.56-23.53-23.53 0-1.2.09-2.39.27-3.57.55-3.61-.41-7.34-2.65-10.24-2.24-2.89-5.62-4.77-9.27-5.13-6.46-.66-13.2-.99-20.02-.99-35.82 0-71.73 8.61-109.73 17.73-38.32 9.19-77.92 18.7-117.84 18.7-4.41 0-11.09-.2-15.91-.37-7-.25-13.25 4.45-14.9 11.13-2.6 10.53-12 17.87-22.86 17.87-.36 0-.74 0-1.11-.02-2.83-.14-5.63.9-7.68 2.85-2.03 1.96-3.17 4.58-3.17 7.41v101.41c0 2.74 1.07 5.31 3 7.24 1.97 1.97 4.58 3.04 7.41 3.04h.01c12.98 0 23.53 10.56 23.53 23.53 0 1.2-.08 2.39-.26 3.57-.55 3.61.41 7.34 2.64 10.24 2.25 2.89 5.63 4.77 9.28 5.13 6.46.66 13.19.99 20.02.99 35.81 0 71.71-8.61 109.73-17.73 38.31-9.19 77.92-18.7 117.84-18.7 2.21 0 4.98.05 7.8.12 2.82.08 5.69.16 8.1.25 6.99.24 13.26-4.45 14.91-11.13 2.6-10.52 11.99-17.87 22.86-17.87.36 0 .74 0 1.11.02 2.83.12 5.62-.9 7.67-2.85 2.04-1.96 3.18-4.58 3.18-7.41v-101.41c0-2.74-1.08-5.31-3.01-7.24zm-307.09 141.35c-20.43 0-37-27.52-37-61.47s16.57-61.47 37-61.47c20.44 0 37 27.52 37 61.47s-16.56 61.47-37 61.47zm253.24-22.87c-20.43 0-37-27.52-37-61.47s16.57-61.47 37-61.47c20.44 0 37 27.52 37 61.47s-16.56 61.47-37 61.47z" fill="url(#SVGID_00000122001820222335554500000002532433297721616286_)"/><path d="m500.412 136.326c-41.166-17.036-82.508-16.195-123.908-9.325v228.753c40.058-6.648 80.061-7.652 119.903 7.722 6.544 2.525 13.592-2.229 13.592-9.243v-203.55c.001-6.282-3.782-11.955-9.587-14.357z" fill="url(#SVGID_00000176006595933428893780000004895068588445104827_)"/><path d="m116.458 248.827v110.49c0 6.282 3.783 11.955 9.588 14.357 122.921 50.868 247.406-57.641 370.362-10.197 6.544 2.525 13.592-2.229 13.592-9.243v-105.407z" fill="url(#SVGID_00000018946641717807602770000005482765146804634039_)"/><path d="m116.458 359.317c0 6.282 3.783 11.955 9.588 14.357 62.499 25.864 125.403 10.525 188.304-4.567v-91.607h-197.892z" fill="url(#SVGID_00000036223310678604701560000006222425522263359631_)"/><path d="m308.61 177.9c-44.63 0-80.81 36.18-80.81 80.81s36.18 80.81 80.81 80.81 80.81-36.18 80.81-80.81-36.18-80.81-80.81-80.81zm0 142.87c-34.27 0-62.05-27.78-62.05-62.06 0-34.27 27.78-62.05 62.05-62.05s62.06 27.78 62.06 62.05c0 34.28-27.79 62.06-62.06 62.06z" fill="url(#SVGID_00000015348021672432697040000012791816546446039958_)"/><path d="m315.839 246.791v-21.759c9.688.745 12.52 5.514 17.437 5.514 6.559 0 9.241-8.196 9.241-12.221 0-10.283-17.437-12.668-26.678-12.965v-3.726c0-2.087-2.831-4.025-5.662-4.025-3.279 0-5.664 1.938-5.664 4.025v4.172c-15.798 2.237-29.807 11.328-29.807 30.256 0 19.077 16.095 25.485 29.807 30.702v24.143c-11.029-1.938-16.095-10.73-22.355-10.73-5.664 0-10.134 7.452-10.134 12.518 0 9.538 14.605 18.779 32.489 19.375v3.726c0 2.087 2.385 4.025 5.664 4.025 2.831 0 5.662-1.938 5.662-4.025v-4.322c17.437-2.831 29.361-14.01 29.361-32.489 0-20.121-15.799-27.127-29.361-32.194zm-9.836-3.577c-5.664-2.384-9.538-5.066-9.538-9.39 0-3.576 2.831-7.004 9.538-8.345zm8.346 47.543v-19.971c5.365 2.534 9.091 5.664 9.091 10.582 0 5.364-4.024 8.197-9.091 9.389z" fill="url(#SVGID_00000154402933550202450060000005843839042267330467_)"/></g><path d="m116.458 359.317c0 6.282 3.783 11.955 9.588 14.357 62.499 25.864 125.403 10.525 188.304-4.567v-151.607h-197.892z" fill="url(#SVGID_00000069391670042547902360000017959125498176863375_)"/><g><path d="m192.724 217.5h29.69c4.142 0 7.5-3.358 7.5-7.5s-3.358-7.5-7.5-7.5h-29.69c-4.142 0-7.5 3.358-7.5 7.5s3.358 7.5 7.5 7.5z" fill="url(#SVGID_00000075868160145243014730000005726759663071850423_)"/><path d="m102.7 217.5h29.69c4.142 0 7.5-3.358 7.5-7.5s-3.358-7.5-7.5-7.5h-29.69c-4.142 0-7.5 3.358-7.5 7.5s3.358 7.5 7.5 7.5z" fill="url(#SVGID_00000114768352856256007100000009161537180136027059_)"/><path d="m207.275 292.5h-30c-4.142 0-7.5 3.358-7.5 7.5s3.358 7.5 7.5 7.5h30c4.142 0 7.5-3.358 7.5-7.5s-3.357-7.5-7.5-7.5z" fill="url(#SVGID_00000128451561616232283550000008885254132188506767_)"/><path d="m125.404 262.5h-30c-4.142 0-7.5 3.358-7.5 7.5s3.358 7.5 7.5 7.5h30c4.142 0 7.5-3.358 7.5-7.5s-3.358-7.5-7.5-7.5z" fill="url(#SVGID_00000073722630333650900310000014736054849630293897_)"/></g><path d="m169.275 292.5h-52.817v15h52.817c4.142 0 7.5-3.358 7.5-7.5s-3.358-7.5-7.5-7.5z" fill="url(#SVGID_00000110465788021145502980000009863769861949970341_)"/></g></svg>