<svg xmlns="http://www.w3.org/2000/svg" width="225" height="225" viewBox="0 0 225 225" version="1.1"><path d="M 26.252 16.104 C 21.524 18.445, 17.389 22.849, 15.348 27.718 C 14.254 30.330, 14.004 46.327, 14.022 112.718 C 14.043 190.188, 14.142 194.711, 15.896 198.500 C 16.914 200.700, 19.042 203.714, 20.624 205.197 C 27.064 211.236, 23.331 211, 112.500 211 C 201.669 211, 197.936 211.236, 204.376 205.197 C 205.958 203.714, 208.086 200.700, 209.104 198.500 C 210.858 194.711, 210.957 190.188, 210.978 112.718 C 211.002 23.301, 211.238 27.067, 205.197 20.624 C 203.714 19.042, 200.700 16.914, 198.500 15.896 C 194.711 14.141, 190.183 14.043, 112.500 14.023 C 31.155 14.002, 30.466 14.018, 26.252 16.104 M 29.557 62.223 C 28.282 64.043, 28 67.850, 28 83.268 C 28 101.898, 28.025 102.116, 30.444 104.535 C 34.940 109.031, 38.971 105.530, 39.055 97.059 C 39.104 92.211, 39.465 91.221, 41.878 89.321 L 44.646 87.141 51.298 96.022 C 58.896 106.165, 60.543 107.409, 64.063 105.660 C 68.551 103.431, 67.720 100.624, 59.575 90.497 C 55.409 85.317, 52 80.786, 52 80.427 C 52 80.068, 55.150 76.858, 59 73.294 C 66.020 66.794, 67.438 63.838, 64.800 61.200 C 61.881 58.281, 58.800 59.921, 48.860 69.687 L 39 79.374 39 71.342 C 39 64.831, 38.654 62.997, 37.171 61.655 C 34.625 59.350, 31.400 59.591, 29.557 62.223 M 76.655 61.829 C 75.234 63.399, 75 66.417, 75 83.174 C 75 107.405, 74.073 106.002, 90.079 105.994 C 96.360 105.991, 103.159 105.528, 105.186 104.965 C 110.562 103.472, 114 98.931, 114 93.323 C 114 89.488, 113.468 88.268, 110.503 85.303 L 107.007 81.807 108.934 79.356 C 113.801 73.169, 111.903 65.219, 104.788 61.990 C 98.651 59.205, 79.131 59.093, 76.655 61.829 M 122.500 62.359 C 120.640 65.198, 121.438 67.837, 124.360 68.511 C 125.537 68.782, 130.828 69.115, 136.118 69.252 L 145.735 69.500 133.368 83.918 C 120.877 98.478, 119.136 101.736, 122.200 104.800 C 123.038 105.638, 128.451 106, 140.129 106 C 154.003 106, 157.125 105.732, 158.429 104.429 C 160.479 102.378, 160.415 100.686, 158.211 98.691 C 156.842 97.452, 153.867 97.005, 145.533 96.786 L 134.644 96.500 146.820 82.500 C 153.517 74.800, 159.276 67.469, 159.617 66.210 C 160.020 64.719, 159.618 63.235, 158.464 61.960 C 156.840 60.166, 155.308 60, 140.368 60 C 124.321 60, 124.020 60.040, 122.500 62.359 M 176 60.734 C 176 61.176, 180.481 66.002, 185.959 71.459 C 193.222 78.695, 196.075 80.969, 196.500 79.861 C 196.821 79.025, 196.952 74.327, 196.791 69.421 L 196.500 60.500 186.250 60.215 C 180.613 60.058, 176 60.292, 176 60.734 M 85 74 L 85 79 90.250 78.900 C 98.365 78.746, 100.447 77.883, 100.836 74.510 C 101.309 70.410, 98.871 69, 91.309 69 L 85 69 85 74 M 85 92 L 85 97 92.929 97 C 101.324 97, 104 95.788, 104 91.985 C 104 88.639, 100.147 87, 92.277 87 L 85 87 85 92 M 75.486 114.250 C 75.182 115.487, 75.061 125.725, 75.217 137 L 75.500 157.500 78 157.500 C 80.423 157.500, 80.509 157.265, 80.790 149.870 L 81.080 142.241 89.853 141.821 C 103.514 141.168, 109.549 136.503, 109.446 126.674 C 109.333 115.937, 103.232 112, 86.703 112 C 76.473 112, 76.016 112.092, 75.486 114.250 M 81 127 L 81 137 88.032 137 C 99.319 137, 104 134.069, 104 127 C 104 119.819, 99.645 117, 88.550 117 L 81 117 81 127 M 120.750 125.162 C 118.972 125.812, 118 126.891, 118 128.214 C 118 130.057, 118.376 130.181, 121.750 129.457 C 123.813 129.015, 127.680 128.623, 130.345 128.586 C 134.453 128.530, 135.556 128.945, 137.595 131.316 C 138.918 132.853, 140 134.960, 140 135.998 C 140 137.718, 139.398 137.833, 133.163 137.310 C 125.081 136.633, 119.897 138.045, 117.016 141.707 C 113.574 146.083, 114.870 153.375, 119.647 156.504 C 124.058 159.395, 129.991 159.435, 135.250 156.609 C 139.865 154.129, 140 154.114, 140 156.098 C 140 157.643, 140.547 158.061, 142.250 157.820 C 144.419 157.511, 144.510 157.077, 144.782 145.719 C 145.100 132.447, 144.009 128.618, 139.080 125.706 C 135.832 123.788, 125.364 123.477, 120.750 125.162 M 152.370 125.478 C 151.997 126.450, 154.613 133.129, 158.873 142.078 C 162.793 150.313, 166 157.428, 166 157.890 C 166 158.352, 165.043 159.947, 163.873 161.435 C 162.019 163.792, 161.150 164.098, 157.123 163.820 C 153.060 163.539, 152.500 163.742, 152.500 165.500 C 152.500 168.310, 158.658 169.799, 162.942 168.024 C 167.372 166.189, 168.896 163.608, 176.990 144.235 C 184.003 127.448, 184.849 123.497, 181.279 124.185 C 180.086 124.414, 177.886 128.782, 174.169 138.298 L 168.786 152.078 162.641 138.302 C 156.615 124.794, 153.923 121.432, 152.370 125.478 M 28.667 138.667 C 28.300 139.033, 28 143.533, 28 148.667 L 28 158 38.731 158 L 49.462 158 39.500 148 C 34.021 142.500, 29.492 138, 29.435 138 C 29.379 138, 29.033 138.300, 28.667 138.667 M 124.315 142.007 C 118.775 144.239, 118.930 151.237, 124.572 153.595 C 131.376 156.438, 140 151.628, 140 144.990 C 140 142.721, 139.463 142.143, 136.875 141.625 C 132.612 140.772, 126.953 140.944, 124.315 142.007" stroke="none" fill="#0453a4" fill-rule="evenodd"/><path d="M -0 112.504 L -0 225.009 112.750 224.754 L 225.500 224.500 225.754 112.250 L 226.009 0 113.004 0 L 0 0 -0 112.504 M 0.483 113 C 0.483 174.875, 0.603 200.188, 0.750 169.250 C 0.897 138.313, 0.897 87.688, 0.750 56.750 C 0.603 25.813, 0.483 51.125, 0.483 113 M 26.252 16.104 C 21.524 18.445, 17.389 22.849, 15.348 27.718 C 14.254 30.330, 14.004 46.327, 14.022 112.718 C 14.043 190.188, 14.142 194.711, 15.896 198.500 C 16.914 200.700, 19.042 203.714, 20.624 205.197 C 27.064 211.236, 23.331 211, 112.500 211 C 201.669 211, 197.936 211.236, 204.376 205.197 C 205.958 203.714, 208.086 200.700, 209.104 198.500 C 210.858 194.711, 210.957 190.188, 210.978 112.718 C 211.002 23.301, 211.238 27.067, 205.197 20.624 C 203.714 19.042, 200.700 16.914, 198.500 15.896 C 194.711 14.141, 190.183 14.043, 112.500 14.023 C 31.155 14.002, 30.466 14.018, 26.252 16.104 M 29.557 62.223 C 28.282 64.043, 28 67.850, 28 83.268 C 28 101.898, 28.025 102.116, 30.444 104.535 C 34.940 109.031, 38.971 105.530, 39.055 97.059 C 39.104 92.211, 39.465 91.221, 41.878 89.321 L 44.646 87.141 51.298 96.022 C 58.896 106.165, 60.543 107.409, 64.063 105.660 C 68.551 103.431, 67.720 100.624, 59.575 90.497 C 55.409 85.317, 52 80.786, 52 80.427 C 52 80.068, 55.150 76.858, 59 73.294 C 66.020 66.794, 67.438 63.838, 64.800 61.200 C 61.881 58.281, 58.800 59.921, 48.860 69.687 L 39 79.374 39 71.342 C 39 64.831, 38.654 62.997, 37.171 61.655 C 34.625 59.350, 31.400 59.591, 29.557 62.223 M 76.655 61.829 C 75.234 63.399, 75 66.417, 75 83.174 C 75 107.405, 74.073 106.002, 90.079 105.994 C 96.360 105.991, 103.159 105.528, 105.186 104.965 C 110.562 103.472, 114 98.931, 114 93.323 C 114 89.488, 113.468 88.268, 110.503 85.303 L 107.007 81.807 108.934 79.356 C 113.801 73.169, 111.903 65.219, 104.788 61.990 C 98.651 59.205, 79.131 59.093, 76.655 61.829 M 122.500 62.359 C 120.640 65.198, 121.438 67.837, 124.360 68.511 C 125.537 68.782, 130.828 69.115, 136.118 69.252 L 145.735 69.500 133.368 83.918 C 120.877 98.478, 119.136 101.736, 122.200 104.800 C 123.038 105.638, 128.451 106, 140.129 106 C 154.003 106, 157.125 105.732, 158.429 104.429 C 160.479 102.378, 160.415 100.686, 158.211 98.691 C 156.842 97.452, 153.867 97.005, 145.533 96.786 L 134.644 96.500 146.820 82.500 C 153.517 74.800, 159.276 67.469, 159.617 66.210 C 160.020 64.719, 159.618 63.235, 158.464 61.960 C 156.840 60.166, 155.308 60, 140.368 60 C 124.321 60, 124.020 60.040, 122.500 62.359 M 176 60.734 C 176 61.176, 180.481 66.002, 185.959 71.459 C 193.222 78.695, 196.075 80.969, 196.500 79.861 C 196.821 79.025, 196.952 74.327, 196.791 69.421 L 196.500 60.500 186.250 60.215 C 180.613 60.058, 176 60.292, 176 60.734 M 85 74 L 85 79 90.250 78.900 C 98.365 78.746, 100.447 77.883, 100.836 74.510 C 101.309 70.410, 98.871 69, 91.309 69 L 85 69 85 74 M 85 92 L 85 97 92.929 97 C 101.324 97, 104 95.788, 104 91.985 C 104 88.639, 100.147 87, 92.277 87 L 85 87 85 92 M 75.486 114.250 C 75.182 115.487, 75.061 125.725, 75.217 137 L 75.500 157.500 78 157.500 C 80.423 157.500, 80.509 157.265, 80.790 149.870 L 81.080 142.241 89.853 141.821 C 103.514 141.168, 109.549 136.503, 109.446 126.674 C 109.333 115.937, 103.232 112, 86.703 112 C 76.473 112, 76.016 112.092, 75.486 114.250 M 81 127 L 81 137 88.032 137 C 99.319 137, 104 134.069, 104 127 C 104 119.819, 99.645 117, 88.550 117 L 81 117 81 127 M 120.750 125.162 C 118.972 125.812, 118 126.891, 118 128.214 C 118 130.057, 118.376 130.181, 121.750 129.457 C 123.813 129.015, 127.680 128.623, 130.345 128.586 C 134.453 128.530, 135.556 128.945, 137.595 131.316 C 138.918 132.853, 140 134.960, 140 135.998 C 140 137.718, 139.398 137.833, 133.163 137.310 C 125.081 136.633, 119.897 138.045, 117.016 141.707 C 113.574 146.083, 114.870 153.375, 119.647 156.504 C 124.058 159.395, 129.991 159.435, 135.250 156.609 C 139.865 154.129, 140 154.114, 140 156.098 C 140 157.643, 140.547 158.061, 142.250 157.820 C 144.419 157.511, 144.510 157.077, 144.782 145.719 C 145.100 132.447, 144.009 128.618, 139.080 125.706 C 135.832 123.788, 125.364 123.477, 120.750 125.162 M 152.370 125.478 C 151.997 126.450, 154.613 133.129, 158.873 142.078 C 162.793 150.313, 166 157.428, 166 157.890 C 166 158.352, 165.043 159.947, 163.873 161.435 C 162.019 163.792, 161.150 164.098, 157.123 163.820 C 153.060 163.539, 152.500 163.742, 152.500 165.500 C 152.500 168.310, 158.658 169.799, 162.942 168.024 C 167.372 166.189, 168.896 163.608, 176.990 144.235 C 184.003 127.448, 184.849 123.497, 181.279 124.185 C 180.086 124.414, 177.886 128.782, 174.169 138.298 L 168.786 152.078 162.641 138.302 C 156.615 124.794, 153.923 121.432, 152.370 125.478 M 28.667 138.667 C 28.300 139.033, 28 143.533, 28 148.667 L 28 158 38.731 158 L 49.462 158 39.500 148 C 34.021 142.500, 29.492 138, 29.435 138 C 29.379 138, 29.033 138.300, 28.667 138.667 M 124.315 142.007 C 118.775 144.239, 118.930 151.237, 124.572 153.595 C 131.376 156.438, 140 151.628, 140 144.990 C 140 142.721, 139.463 142.143, 136.875 141.625 C 132.612 140.772, 126.953 140.944, 124.315 142.007" stroke="none" fill="#f7f8fa" fill-rule="evenodd"/></svg>