<svg xmlns="http://www.w3.org/2000/svg" width="512" height="512" viewBox="0 0 512 512" version="1.1"><path d="M 187.432 100.443 C 132.265 114.707, 106.662 179.423, 130.046 245.500 C 137.729 267.210, 149.948 286.076, 167.945 304.013 C 185.658 321.668, 207.447 336.350, 227.500 344.145 C 251.423 353.443, 292.090 356.437, 320.365 350.980 C 378.755 339.712, 420.498 296.910, 426.171 242.490 C 430.871 197.405, 407.141 155.574, 363.780 132.507 C 325.585 112.188, 286.516 115.094, 252.014 140.821 C 203.735 176.820, 185.029 244.020, 210.573 289.696 C 212.558 293.246, 214.314 296.005, 214.476 295.826 C 214.638 295.646, 214.336 292.575, 213.806 289 C 212.497 280.167, 213.476 264.837, 215.830 257.286 C 221.189 240.101, 233.726 229.546, 250.260 228.298 C 274.737 226.451, 297.392 243.735, 302.062 267.819 C 304.347 279.601, 302.079 294.085, 296.120 305.765 C 292.360 313.135, 282.528 322.631, 274.632 326.520 C 254.926 336.225, 237.198 332.516, 220 315.090 C 210.724 305.692, 205.626 297.809, 200.884 285.531 C 190.006 257.366, 189.210 227.791, 198.561 199.243 C 209.597 165.553, 235.042 137.500, 269.908 120.583 L 279.317 116.019 270.876 112.063 C 250.374 102.456, 231.022 97.976, 210.343 98.049 C 199.181 98.089, 194.744 98.552, 187.432 100.443 M 108.080 221.750 C 89.966 245.825, 84.117 274.705, 90.918 306.500 C 93.021 316.332, 98.340 331.800, 102.289 339.568 C 115.016 364.601, 138.626 387.580, 164.333 399.954 C 183.543 409.201, 200.890 413.009, 223.657 412.978 C 245.183 412.949, 258.880 409.998, 275.384 401.834 C 287.027 396.075, 296.915 388.845, 305.710 379.662 C 312.699 372.365, 323.385 358.051, 322.502 357.169 C 322.315 356.982, 317.738 357.642, 312.331 358.636 C 297.175 361.423, 263.064 361.204, 249.435 358.232 C 203.114 348.132, 164.725 320.128, 137.809 276.803 C 128.208 261.348, 118.776 237.669, 115.882 221.750 C 115.207 218.037, 114.318 215, 113.907 215 C 113.496 215, 110.874 218.037, 108.080 221.750" stroke="none" fill="#3889d4" fill-rule="evenodd"/><path d="M 0 256.002 L 0 512.004 256.250 511.752 L 512.500 511.500 512.752 255.750 L 513.004 0 256.502 0 L 0 0 0 256.002 M 0.492 256.500 C 0.492 397.300, 0.608 454.751, 0.750 384.170 C 0.892 313.588, 0.892 198.388, 0.750 128.170 C 0.608 57.951, 0.492 115.700, 0.492 256.500 M 187.432 100.443 C 132.265 114.707, 106.662 179.423, 130.046 245.500 C 137.729 267.210, 149.948 286.076, 167.945 304.013 C 185.658 321.668, 207.447 336.350, 227.500 344.145 C 251.423 353.443, 292.090 356.437, 320.365 350.980 C 378.755 339.712, 420.498 296.910, 426.171 242.490 C 430.871 197.405, 407.141 155.574, 363.780 132.507 C 325.585 112.188, 286.516 115.094, 252.014 140.821 C 203.735 176.820, 185.029 244.020, 210.573 289.696 C 212.558 293.246, 214.314 296.005, 214.476 295.826 C 214.638 295.646, 214.336 292.575, 213.806 289 C 212.497 280.167, 213.476 264.837, 215.830 257.286 C 221.189 240.101, 233.726 229.546, 250.260 228.298 C 274.737 226.451, 297.392 243.735, 302.062 267.819 C 304.347 279.601, 302.079 294.085, 296.120 305.765 C 292.360 313.135, 282.528 322.631, 274.632 326.520 C 254.926 336.225, 237.198 332.516, 220 315.090 C 210.724 305.692, 205.626 297.809, 200.884 285.531 C 190.006 257.366, 189.210 227.791, 198.561 199.243 C 209.597 165.553, 235.042 137.500, 269.908 120.583 L 279.317 116.019 270.876 112.063 C 250.374 102.456, 231.022 97.976, 210.343 98.049 C 199.181 98.089, 194.744 98.552, 187.432 100.443 M 108.080 221.750 C 89.966 245.825, 84.117 274.705, 90.918 306.500 C 93.021 316.332, 98.340 331.800, 102.289 339.568 C 115.016 364.601, 138.626 387.580, 164.333 399.954 C 183.543 409.201, 200.890 413.009, 223.657 412.978 C 245.183 412.949, 258.880 409.998, 275.384 401.834 C 287.027 396.075, 296.915 388.845, 305.710 379.662 C 312.699 372.365, 323.385 358.051, 322.502 357.169 C 322.315 356.982, 317.738 357.642, 312.331 358.636 C 297.175 361.423, 263.064 361.204, 249.435 358.232 C 203.114 348.132, 164.725 320.128, 137.809 276.803 C 128.208 261.348, 118.776 237.669, 115.882 221.750 C 115.207 218.037, 114.318 215, 113.907 215 C 113.496 215, 110.874 218.037, 108.080 221.750" stroke="none" fill="#f3fb08" fill-rule="evenodd"/></svg>